<?xml version="1.0" encoding="UTF-8" standalone="no"?>
<!-- Created with Inkscape (http://www.inkscape.org/) -->

<svg
   width="138.96939mm"
   height="78.566505mm"
   viewBox="0 0 138.96939 78.566505"
   version="1.1"
   id="svg8"
   inkscape:version="1.1 (c68e22c387, 2021-05-23)"
   sodipodi:docname="empty-image.svg"
   xmlns:inkscape="http://www.inkscape.org/namespaces/inkscape"
   xmlns:sodipodi="http://sodipodi.sourceforge.net/DTD/sodipodi-0.dtd"
   xmlns="http://www.w3.org/2000/svg"
   xmlns:svg="http://www.w3.org/2000/svg"
   xmlns:rdf="http://www.w3.org/1999/02/22-rdf-syntax-ns#"
   xmlns:cc="http://creativecommons.org/ns#"
   xmlns:dc="http://purl.org/dc/elements/1.1/">
  <defs
     id="defs2" />
  <sodipodi:namedview
     id="base"
     pagecolor="#ffffff"
     bordercolor="#666666"
     borderopacity="1.0"
     inkscape:pageopacity="0.0"
     inkscape:pageshadow="2"
     inkscape:zoom="0.49497475"
     inkscape:cx="-236.3757"
     inkscape:cy="839.43676"
     inkscape:document-units="mm"
     inkscape:current-layer="layer1"
     inkscape:pagecheckerboard="0"
     showgrid="false"
     fit-margin-top="0"
     fit-margin-left="0"
     fit-margin-right="0"
     fit-margin-bottom="0"
     inkscape:window-width="2560"
     inkscape:window-height="1377"
     inkscape:window-x="-8"
     inkscape:window-y="-8"
     inkscape:window-maximized="1" />
  <metadata
     id="metadata5">
    <rdf:RDF>
      <cc:Work
         rdf:about="">
        <dc:format>image/svg+xml</dc:format>
        <dc:type
           rdf:resource="http://purl.org/dc/dcmitype/StillImage" />
      </cc:Work>
    </rdf:RDF>
  </metadata>
  <g
     inkscape:label="Warstwa 1"
     inkscape:groupmode="layer"
     id="layer1"
     transform="translate(-0.23572311,-0.17077764)">
    <g
       id="g3245"
       transform="translate(-35.279578,-109.04597)">
      <rect
         style="fill:#f2f2f2;stroke:#f1f1f3;stroke-width:1.17678;stroke-miterlimit:3.5;stroke-dasharray:none;stroke-dashoffset:3"
         id="rect3070"
         width="137.79262"
         height="77.389725"
         x="36.103691"
         y="109.80514"
         rx="0"
         ry="0" />
      <path
         id="path981"
         style="fill:#040404;stroke:none;stroke-width:0.0839946"
         d="m 111.18308,134.40337 c -0.19891,-0.006 -0.39963,-0.004 -0.59789,0.002 l 5.3e-4,5.3e-4 c -0.26437,0.007 -0.52473,0.0186 -0.77309,0.0186 h -6.80269 c -7e-5,-0.001 -8e-5,-0.002 -5.3e-4,-0.004 h -0.008 -0.0104 c -7.9e-4,0 -0.002,1.2e-4 -0.003,0 -0.003,-5.3e-4 -0.006,-7.9e-4 -0.009,-0.002 -2.6e-4,-8e-5 -7.9e-4,-5.3e-4 -0.001,-5.3e-4 -2.6e-4,-9e-5 -7.9e-4,1e-4 -10e-4,0 -0.003,1e-4 -0.006,3e-5 -0.008,0 -5.3e-4,-6e-5 -10e-4,8e-5 -0.002,0 -0.004,-5.3e-4 -0.007,-0.001 -0.0104,-0.002 -5.3e-4,-1.5e-4 -0.001,-8e-5 -0.002,-5.3e-4 h -5.3e-4 c -7.9e-4,1.1e-4 -0.002,-5e-5 -0.004,0 -0.002,2.7e-4 -0.005,5.3e-4 -0.007,5.3e-4 h -0.004 -0.0388 -0.0419 -0.0264 -0.006 c -0.003,7.9e-4 -0.006,0.002 -0.009,0.003 -0.007,2.7e-4 -0.0147,-5.3e-4 -0.0222,-5.3e-4 -0.008,1.9e-4 -0.0151,1e-5 -0.0227,0 -0.003,0 -0.006,0 -0.008,0 -0.003,0.001 -0.007,0.003 -0.008,0.004 -0.008,0.002 -0.0122,0.002 -0.0196,5.3e-4 -2.6e-4,-7e-5 -7.9e-4,7e-5 -0.001,0 -0.004,1.7e-4 -0.008,-2e-5 -0.0114,0 -0.004,-3e-5 -0.008,-2e-5 -0.0119,0 -0.007,1e-5 -0.014,0 -0.0212,0 -0.005,2.7e-4 -0.01,2.7e-4 -0.0139,-0.002 -2.6e-4,5e-5 -7.9e-4,-4e-5 -0.001,0 -0.003,5.3e-4 -0.006,4e-5 -0.009,0 -0.006,-1e-4 -0.005,2.6e-4 -0.0134,-0.002 -0.002,-5.3e-4 -0.004,-0.001 -0.006,-0.002 -2.6e-4,-6e-5 -7.9e-4,5.3e-4 -10e-4,5.3e-4 -0.001,2.4e-4 -0.002,-1e-4 -0.003,0 -0.005,7.9e-4 -0.009,5.3e-4 -0.0139,5.3e-4 -0.005,2.6e-4 -0.01,-5.3e-4 -0.015,-0.002 -0.007,-0.001 -0.003,-0.001 -0.006,-0.001 -0.006,7.9e-4 -0.0124,5.3e-4 -0.0186,5.3e-4 -0.006,-1.8e-4 -0.0127,-1e-5 -0.0191,0 -0.006,0 -0.0118,0 -0.0176,0 -0.008,0 -0.0163,0 -0.0243,0 h -0.0227 -0.0253 -0.002 c -0.006,0 -0.0107,2.6e-4 -0.0171,-0.002 -0.006,-10e-4 -0.006,-0.004 -0.005,-10e-4 -0.007,2.1e-4 -0.013,7.9e-4 -0.0196,5.3e-4 -10e-4,-2.3e-4 1.4e-4,1.7e-4 -10e-4,0 2.7e-4,1.2e-4 -0.001,-1e-5 -0.002,0 -7.9e-4,0 -0.002,-1e-5 -0.003,0 -0.004,2e-5 2.7e-4,-2e-5 -0.005,0 -0.007,-1e-5 -0.0138,-1e-5 -0.0207,0 h -0.008 -0.0171 -0.0119 -0.0129 -0.0139 c -0.004,0 -0.002,-8e-4 -0.005,5.3e-4 -0.0102,0.003 -0.0211,0.002 -0.0315,0.002 -5.3e-4,0 -0.003,-2.7e-4 -0.003,0 -2.6e-4,2e-4 0.003,-6e-5 0.003,5.3e-4 -1e-4,5.3e-4 -0.003,5.3e-4 -0.003,5.3e-4 -0.007,0.002 -0.0115,0.002 -0.0186,10e-4 -10e-4,-1.2e-4 -0.005,-1.6e-4 -0.004,0 10e-4,1.8e-4 0.003,5e-5 0.004,5.2e-4 -0.007,0.003 -0.0105,0.004 -0.0191,0.005 -0.008,-7.9e-4 -0.0146,-0.001 -0.0222,-0.001 -0.01,1.8e-4 -0.0194,1e-5 -0.0289,0 -0.007,2e-5 -0.0129,1e-5 -0.0196,0 -0.005,0 -0.0107,0 -0.016,0 h -0.0227 -0.016 -0.0212 c 0.001,2.1e-4 -0.005,-1.6e-4 -0.004,0 8e-4,9e-5 0.004,-1.9e-4 0.003,5.3e-4 -7.9e-4,8e-4 -0.0108,0.002 -0.0108,0.002 -0.004,8e-4 -0.008,-5.2e-4 -0.0124,-0.001 -5.3e-4,-4e-5 0.001,6e-5 0.002,5.3e-4 -10e-4,3e-5 -0.003,-2e-5 -0.004,0 -0.008,1.9e-4 -0.0155,2e-5 -0.0233,0 -0.001,0 -0.002,-1.9e-4 -0.003,0 -0.002,2.6e-4 0.002,5.3e-4 0.001,5.3e-4 -0.008,0.002 -0.0108,0.003 -0.0186,0.002 -0.005,-5.3e-4 -0.0101,-5.3e-4 -0.015,-5.3e-4 -0.005,-1e-5 -0.01,0 -0.0145,0 -0.006,10e-6 -0.0113,0 -0.017,0 -0.007,2.7e-4 -0.0105,2.7e-4 -0.0171,-0.003 h -5.3e-4 c -5.3e-4,2e-5 -0.002,5.3e-4 -0.002,5.3e-4 -0.004,2.3e-4 -0.007,7e-5 -0.0109,0 -0.006,-1.7e-4 -0.0129,-1e-5 -0.0191,0 -0.006,0 -0.0123,0 -0.0186,0 -0.005,1.4e-4 -0.008,-0.001 -0.0124,-0.003 0.002,5.3e-4 0.003,5.3e-4 0.005,5.3e-4 0.001,-2.6e-4 0.002,-5e-5 0.003,-5.3e-4 -0.008,-7.9e-4 -0.0161,-0.002 -0.0243,-0.002 -0.006,5.3e-4 -0.0121,2.7e-4 -0.0165,-0.002 -0.002,1.8e-4 -0.002,0.002 -0.004,0.002 h -0.006 -0.0393 c -0.003,8e-4 -0.003,0.004 -0.007,0.004 h -0.006 -0.0724 c -0.003,0 -0.003,-0.002 -0.006,-0.002 -0.005,0.003 -0.0123,0.004 -0.0207,0.004 h -0.007 -0.004 -0.008 c -5e-5,0.004 -0.002,0.006 -0.002,0.007 -10e-5,-0.001 1e-5,-0.003 -5.3e-4,-0.007 h -0.0434 c -0.006,0 -0.0122,-0.002 -0.0165,-0.003 h -6.954877 c -1.08303,0 -2.262976,-0.15746 -3.100067,0.67955 -0.83701,0.83709 -0.679546,2.01709 -0.679546,3.10007 v 7.05538 c -0.005,-0.001 -0.01069,-0.003 -0.01601,-0.004 2.65e-4,0.002 7.94e-4,0.004 0.0011,0.007 7.94e-4,0.0138 -7.93e-4,0.0271 -0.0016,0.0408 -1.16e-4,0.002 -1.61e-4,0.005 0,0.008 2.65e-4,0.004 0.0019,0.008 0.0026,0.0124 0.0016,0.009 0.0013,0.0176 0.0011,0.0269 -0.0011,0.0133 -5.29e-4,0.0265 -5.29e-4,0.0398 1.6e-5,0.0103 -1.3e-5,0.0207 0,0.031 2.65e-4,0.009 -5.29e-4,0.015 -0.0036,0.0238 0.0016,0.009 0.0011,0.0187 0.0011,0.0279 -7.93e-4,0.007 2.65e-4,0.0132 -5.29e-4,0.0196 -5.29e-4,0.004 -0.0013,0.008 -0.0021,0.0129 -7.94e-4,0.006 -0.0049,0.0141 -0.0057,0.0202 -3.7e-5,2.7e-4 7.94e-4,2.4e-4 0.0011,5.3e-4 l 5.3e-4,5.3e-4 c -2.17e-4,0.005 -7.94e-4,0.009 -0.0011,0.0139 -5.29e-4,0.004 -0.0024,0.009 -0.0021,0.0134 9.5e-5,0.001 7.93e-4,0.002 5.29e-4,0.004 -7.94e-4,0.005 -0.0016,0.009 -0.0026,0.0139 v 0.002 0.0253 0.01 c 1.32e-4,0.002 0,0.004 0,0.006 v 0.002 0.0259 0.0217 0.0238 c 0,0.005 -7.94e-4,0.003 0.0011,0.006 0.005,0.0124 0.0016,0.0259 0.0016,0.0388 1.72e-4,0.0107 5.29e-4,0.0213 5.29e-4,0.032 -6.1e-5,0.0101 -8e-6,0.0204 0,0.0305 -3e-6,0.01 0,0.0188 0,0.0284 v 0.0207 0.0258 0.0155 0.009 0.0274 0.0191 c 0,0.001 1.56e-4,0.003 0,0.004 -5.29e-4,0.004 -0.0013,0.008 -0.0021,0.0129 -2.51e-4,0.002 -0.0011,0.003 -0.0016,0.005 -8e-5,2.7e-4 8.2e-5,7.9e-4 0,0.001 0,0 0,5.3e-4 0,5.3e-4 0,0 0,5.3e-4 0,5.3e-4 5.29e-4,0.005 5.29e-4,0.01 5.29e-4,0.015 6.3e-5,0.005 8e-6,0.0111 0,0.0165 -1.3e-5,0.003 -3e-6,0.006 0,0.009 0,0.006 -3e-6,0.0117 0,0.0176 v 0.0212 0.0134 c -2.9e-5,5.3e-4 6.1e-5,10e-4 0,0.002 8e-6,0.007 2.4e-5,0.0139 0,0.0207 8e-6,0.002 -3.7e-5,0.004 0,0.006 v 0.0155 0.007 5.3e-4 c 9e-5,2.1e-4 5.29e-4,2.6e-4 5.29e-4,5.3e-4 0.0029,0.0105 0.0024,0.009 0.0026,0.0155 2.12e-4,0.01 -9.3e-5,0.0193 -0.0011,0.0289 -0.0041,-0.003 -2.36e-4,-0.001 0.0021,0.008 0.0013,0.006 0.0019,0.0119 0.0021,0.0176 0.0024,0.006 0.0056,0.0113 0.0057,0.0202 1.94e-4,0.0231 2.33e-4,0.0461 -0.0011,0.0692 -8e-6,0.003 -5.29e-4,0.006 0,0.009 0.0013,0.007 0.0058,0.0162 0.0036,0.0238 v 5.3e-4 c 0.003,0.008 0.0034,0.0161 0.0026,0.0243 v 0.001 c 7.94e-4,0.006 0.0039,0.0116 0.0031,0.0181 v 0.001 c 0.0036,0.007 0.0037,0.0118 0.0036,0.0196 v 0.0145 0.0165 0.0331 c 0,0.003 -1.4e-4,0.006 -5.29e-4,0.008 0.0016,-5.3e-4 0.0034,-5.3e-4 0.0052,-0.001 v 6.88743 c 0,0.99341 -0.183607,2.18314 0.464572,3.02359 0.957881,1.24195 2.689714,0.9245 4.071069,0.92449 h 10.41538 c 0.34782,3.98353 5.09185,6.10973 8.56744,5.06274 3.44227,-1.03701 5.36351,-4.7524 4.46174,-8.17056 -0.29524,-1.11881 -0.87592,-2.11958 -1.69033,-2.93987 -0.89605,-0.90253 -2.13977,-1.73414 -3.44321,-1.84795 v -10.41454 c 0,-1.38138 0.31754,-3.1132 -0.92449,-4.07107 -0.4728,-0.36461 -1.0559,-0.46576 -1.65261,-0.48473 z m -20.297982,11.55847 c 0,0 -5.29e-4,5.3e-4 -5.29e-4,5.3e-4 -1.08e-4,5.3e-4 -1.24e-4,0.002 0,0.002 1.75e-4,-5.3e-4 5.29e-4,-0.001 5.29e-4,-0.002 z M 102.9903,134.4137 c -0.002,5.3e-4 -0.003,0.001 -0.005,0.002 8e-4,-1.4e-4 0.002,-4e-5 0.003,-5.2e-4 5.3e-4,-2.7e-4 0.001,-0.001 0.002,-0.002 z m -0.30179,0.005 c -0.003,2.7e-4 -0.005,0.001 -0.008,0.002 0.001,1.2e-4 0.003,1.9e-4 0.005,-5.3e-4 8e-4,-1.5e-4 0.003,-0.001 0.003,-0.001 z m -8.536427,1.26298 c 0.565097,0.0148 1.144429,0.0868 1.550294,0.0868 h 7.727173 6.29987 c 0.67112,0 1.81379,-0.2247 2.34043,0.27079 0.71278,0.67086 0.34726,2.60219 0.34726,3.50883 v 9.65935 c -1.12629,-0.93029 -1.62808,-2.53768 -2.61896,-3.60861 -0.86489,-0.9347 -2.30111,-1.02409 -3.24579,-0.14366 -1.19559,1.11411 -1.70923,2.86165 -2.87063,4.00389 -0.96552,-1.43127 -1.95426,-2.84689 -2.91196,-4.28346 -0.55697,-0.83549 -1.075661,-1.71722 -2.127522,-1.95854 -0.91924,-0.21099 -1.747142,0.2394 -2.308384,0.95033 -1.419352,1.79757 -2.878058,3.87975 -3.991488,5.87975 -0.36185,-0.86229 -0.08372,-2.33855 -0.08372,-3.27577 v -7.55923 c 0,-0.83096 -0.364689,-2.75843 0.427881,-3.27525 0.349671,-0.228 0.900446,-0.2701 1.465543,-0.25528 z m 9.868137,5.22862 c -0.08,-0.002 -0.16513,0.01 -0.25425,0.0367 -1.02004,0.31086 -0.5017,1.84979 0.50229,1.51515 0.83657,-0.27889 0.52527,-1.5345 -0.24804,-1.55184 z m -5.886467,3.59978 c 1.029819,-0.0595 1.734108,1.65328 2.223637,2.34559 1.26975,1.79547 2.4963,3.63005 3.71657,5.45962 0.51187,0.76755 1.37337,1.63234 1.64744,2.51974 0.10332,0.33456 -0.0209,0.74468 -0.0238,1.09192 h -9.575641 c -0.885389,0 -2.792804,0.35686 -3.500044,-0.23564 -0.57469,-0.48145 -0.363286,-1.53313 -0.363286,-2.20038 0,-1.25027 0.579263,-1.92405 1.259872,-2.93987 0.829789,-1.23859 1.692653,-2.45487 2.519744,-3.69539 0.43299,-0.64935 1.021826,-1.95828 1.765265,-2.26704 0.113615,-0.0472 0.223679,-0.0724 0.330213,-0.0786 z m 9.999907,1.68052 c 1.01389,0 2.40925,2.39626 2.68769,3.26853 -2.05888,0.30406 -3.5193,2.03558 -4.53564,3.6959 -0.51371,-0.46945 -1.56574,-1.73087 -1.6583,-2.43551 -0.0538,-0.40955 0.46451,-0.94742 0.68575,-1.26039 0.6056,-0.85649 1.63642,-3.26853 2.8205,-3.26853 z m 4.37544,4.33617 c 5.04279,0.0196 7.24912,6.98615 2.84789,9.90585 -0.73151,0.48532 -1.56904,0.73944 -2.43603,0.84594 -5.49166,0.67441 -8.00454,-6.95498 -3.44372,-9.88001 0.67834,-0.43501 1.46887,-0.71931 2.26808,-0.82321 0.26128,-0.034 0.51577,-0.0495 0.76378,-0.0486 z m -2.39934,2.36781 c -0.121,-0.004 -0.24624,0.0249 -0.37569,0.0951 -1.07479,0.58242 0.68241,1.93915 1.08676,2.34921 0.1485,0.15052 0.41548,0.35314 0.41548,0.58808 0,0.46188 -0.9509,1.11972 -1.2547,1.42782 -0.42041,0.42627 -0.95627,1.87614 0.25166,1.55133 0.59132,-0.15908 1.0956,-0.88447 1.51205,-1.29915 0.18168,-0.18092 0.4576,-0.56516 0.75603,-0.48679 0.82424,0.21645 1.55861,2.29403 2.59881,1.73168 1.079,-0.58317 -0.67972,-1.92406 -1.08676,-2.33681 -0.1485,-0.15052 -0.41548,-0.35315 -0.41548,-0.58808 0,-0.46189 0.9509,-1.11973 1.25471,-1.42782 0.4319,-0.43804 0.97079,-1.87054 -0.25167,-1.55908 -0.5594,0.14254 -1.03598,0.83169 -1.42782,1.22319 -0.1952,0.19502 -0.51711,0.65525 -0.83974,0.5705 -0.71849,-0.18866 -1.3766,-1.81223 -2.22364,-1.83916 z" />
    </g>
  </g>
</svg>
